<svg xmlns="http://www.w3.org/2000/svg" viewBox="0 0 2686.38 566.93"><circle cx="283.46" cy="283.46" r="269.29" style="fill:#ffd133"/><path d="M283.46,70.87c-117.41,0-212.59,95.18-212.59,212.59s95.18,212.6,212.59,212.6,212.6-95.18,212.6-212.6S400.88,70.87,283.46,70.87Zm0,396.85c-101.75,0-184.25-82.5-184.25-184.26S181.71,99.21,283.46,99.21,467.72,181.7,467.72,283.46,385.22,467.72,283.46,467.72Z" style="fill:#fff"/><circle cx="85.04" cy="283.46" r="42.52" style="fill:#fff"/><circle cx="481.89" cy="283.46" r="42.52" style="fill:#fff"/><circle cx="184.45" cy="454.96" r="42.52" style="fill:#fff"/><circle cx="184.08" cy="111.32" r="42.52" style="fill:#fff"/><circle cx="382.84" cy="111.34" r="42.52" style="fill:#fff"/><circle cx="382.84" cy="455.59" r="42.52" style="fill:#fff"/><rect x="269.29" y="85.04" width="28.35" height="396.85" transform="translate(0 566.93) rotate(-90)" style="fill:#fff"/><rect x="269.29" y="85.04" width="28.35" height="396.85" transform="translate(387.22 670.68) rotate(-150)" style="fill:#fff"/><rect x="269.29" y="85.04" width="28.35" height="396.85" transform="translate(0 566.93) rotate(-90)" style="fill:#fff"/><rect x="269.29" y="85.04" width="28.35" height="396.85" transform="translate(-103.76 179.71) rotate(-30)" style="fill:#fff"/><path d="M778.17,359.49a127.78,127.78,0,0,0,38.11-5.73q18.47-5.72,28.54-14.61V305.83H786V268.57H891V357.1q-19.14,19.65-49.81,30.76A187.42,187.42,0,0,1,776.8,399q-58.78,0-90.4-32.56T654.78,274q0-59.48,31.79-91.17T778,151.16q84.76,0,107.84,62.72l-46.49,14q-7.51-18.28-23.58-27.69T778,190.81q-35.55,0-54,21.54T705.54,274q0,40.84,19.05,63.15T778.17,359.49Z"/><path d="M928.36,395.55V254.05q0-15.21-.43-25.38t-.94-18h45.8q.51,3.08,1.37,18.71t.85,20.76h.69q7-19.47,12.47-27.43a35.46,35.46,0,0,1,13-11.79q7.51-3.84,18.8-3.84,9.22,0,14.87,2.56v40.16a96.62,96.62,0,0,0-20.51-2.56q-17.94,0-27.94,14.53t-10,43.06v90.75Z"/><path d="M1098.54,399q-26.83,0-41.87-14.61t-15-41.11q0-28.71,18.71-43.75t54.26-15.38l39.82-.68V274q0-18.1-6.32-26.92t-20.68-8.8q-13.34,0-19.57,6.07t-7.77,20.08L1050,262.08q4.62-27,24.7-40.93t54.77-13.93q35,0,54,17.26t19,49v67.33q0,15.56,3.51,21.45t11.7,5.9a54.21,54.21,0,0,0,10.6-1v26q-4.27,1-7.69,1.88c-2.28.56-4.56,1-6.84,1.36s-4.7.63-7.26.86-5.55.34-9,.34q-18.12,0-26.75-8.89t-10.34-26.14h-1Q1139.21,399,1098.54,399Zm55.88-89-24.61.34q-16.75.69-23.75,3.68a22.1,22.1,0,0,0-10.68,9.14q-3.69,6.15-3.68,16.4,0,13.17,6.07,19.57t16.15,6.41a36.57,36.57,0,0,0,20.59-6.15,41.84,41.84,0,0,0,14.61-17,51.71,51.71,0,0,0,5.3-23Z"/><path d="M1416.72,302.24q0,46.32-18.55,71.52T1345.79,399q-19.49,0-33.92-8.46a55.4,55.4,0,0,1-22.13-24.36h-1q1,5.13,1,31.11v70.92h-48v-215q0-26.15-1.37-42.55H1287q.86,3.08,1.46,12.13t.59,17.95h.69q16.23-34,59.13-34,32.3,0,50.07,24.86T1416.72,302.24Zm-50.08,0q0-62.21-38.11-62.21-19.14,0-29.31,16.75t-10.17,46.83q0,29.91,10.17,46.22t29,16.32Q1366.65,366.15,1366.64,302.24Z"/><path d="M1494.1,247.55q9.74-21.18,24.44-30.76t35-9.57q29.4,0,45.12,18.11t15.72,53V395.55h-47.85V292q0-48.71-33-48.7-17.43,0-28.12,15t-10.68,38.37v98.95h-48V141.94h48v69.21q0,18.63-1.36,36.4Z"/><path d="M1884.91,274q0,48.19-23.67,80.24t-65.88,40.59q5.81,16.9,16.32,24.43t29.48,7.52a123.55,123.55,0,0,0,20.34-1.71l-.35,34.53a191.17,191.17,0,0,1-41.35,4.78q-27.87,0-46.15-15.55t-29.39-51.61q-48.71-4.62-75.62-37.17t-26.92-86q0-57.93,32.13-90.4t89.38-32.48q57.26,0,89.46,32.82T1884.91,274Zm-51.44,0q0-39-18.46-61.1t-51.78-22.13q-33.84,0-52.3,22T1692.48,274q0,39.65,18.8,62.55t51.61,22.9q33.84,0,52.21-22.22T1833.47,274Z"/><path d="M1914.27,395.55V154.75h50.42V356.58h129.19v39Z"/><path d="M2163.06,399q-26.83,0-41.87-14.61t-15-41.11q0-28.71,18.72-43.75t54.26-15.38l39.82-.68V274q0-18.1-6.33-26.92t-20.68-8.8q-13.32,0-19.56,6.07t-7.78,20.08l-50.07-2.39q4.6-27,24.69-40.93T2194,207.22q35,0,54,17.26t19,49v67.33q0,15.56,3.5,21.45t11.71,5.9a54.1,54.1,0,0,0,10.59-1v26c-2.84.68-5.41,1.31-7.69,1.88s-4.55,1-6.83,1.36-4.7.63-7.26.86-5.56.34-9,.34q-18.11,0-26.74-8.89t-10.34-26.14h-1Q2203.74,399,2163.06,399Zm55.89-89-24.61.34q-16.76.69-23.76,3.68a22.19,22.19,0,0,0-10.68,9.14q-3.68,6.15-3.67,16.4,0,13.17,6.06,19.57t16.15,6.41a36.61,36.61,0,0,0,20.6-6.15,41.84,41.84,0,0,0,14.61-17,51.71,51.71,0,0,0,5.3-23Z"/><path d="M2426,395.55a107.81,107.81,0,0,1-1.62-12.9q-.95-10.35-.94-17.18h-.68q-15.56,33.5-59.14,33.5-32.29,0-49.9-25.21t-17.6-70.5q0-46,18.54-71t52.55-25q19.65,0,33.93,8.2t22,24.44h.34l-.34-30.42v-67.5h48V355.22q0,17.08,1.37,40.33Zm-2.22-93.48q0-29.91-10-46.06t-29.48-16.15q-19.31,0-28.71,15.64t-9.4,47.76q0,62.89,37.77,62.89,19,0,29.4-16.66T2423.82,302.07Z"/><path d="M2587,399q-41.7,0-64.08-24.7t-22.39-72q0-45.8,22.73-70.41t64.43-24.61q39.81,0,60.84,26.4t21,77.33v1.37H2550.93q0,27,10,40.76t28.46,13.76q25.46,0,32.13-22l45.28,3.93Q2647.15,399,2587,399Zm0-161.5q-16.92,0-26.06,11.79t-9.65,33h71.77q-1.37-22.38-10.76-33.58T2587,237.47Z"/></svg>